<svg width="32" height="32" version="1.1" xmlns="http://www.w3.org/2000/svg" desc="Created with imagetracer.js version 1.2.6" ><path fill="rgb(173,33,115)" stroke="rgb(173,33,115)" stroke-width="1" opacity="0.996078431372549" d="M 18.5 4 L 23 6 Q 22.9 11.6 18.5 14 L 16 15.5 L 16.5 17 L 13.5 16 L 12 16.5 L 15.5 8 L 19 5.5 L 18.5 4 Z M 19 9 L 15 14 L 16 15 L 21 11 Q 22 8 19 9 Z " /><path fill="rgb(173,33,115)" stroke="rgb(173,33,115)" stroke-width="1" opacity="0.996078431372549" d="M 9.5 12 L 12 20 L 9.5 19 L 9 21 L 6.5 22 L 4 16.5 Q 6.5 18.3 9 13.5 L 9.5 12 Z " /><path fill="rgb(169,166,167)" stroke="rgb(169,166,167)" stroke-width="1" opacity="0.9607843137254902" d="M 12.5 2 L 16 2.5 L 12 3 Q 13.1 5.7 10.5 5 L 3 12.5 L 2.5 15 L 2 12.5 L 5.5 8 L 8 6.5 L 10.5 3 L 12.5 2 Z " /><path fill="rgb(169,166,167)" stroke="rgb(169,166,167)" stroke-width="1" opacity="0.9607843137254902" d="M 17.5 2 Q 24.9 3.1 28 8.5 L 29 10.5 L 24.5 7 L 19.5 3 L 17.5 3 L 17.5 2 Z " /><path fill="rgb(169,166,167)" stroke="rgb(169,166,167)" stroke-width="1" opacity="0.9607843137254902" d="M 29.5 19 L 29 20.5 L 28 24 L 24 25.5 L 22.5 29 L 18.5 30 L 18.5 29 L 29.5 19 Z " /><path fill="rgb(169,166,167)" stroke="rgb(169,166,167)" stroke-width="1" opacity="0.9607843137254902" d="M 3.5 21 L 12.5 29 L 15 29.5 L 11.5 30 L 4 23.5 L 3.5 21 Z " /><path fill="rgb(169,166,167)" stroke="rgb(169,166,167)" stroke-width="1" opacity="0.9607843137254902" d="M 26.5 25 L 25.5 27 L 26.5 25 Z " /><path fill="rgb(67,67,69)" stroke="rgb(67,67,69)" stroke-width="1" opacity="0.0392156862745098" d="M 3.5 24 L 7.5 29 L 3.5 24 Z " /><path fill="rgb(67,67,69)" stroke="rgb(67,67,69)" stroke-width="1" opacity="0.0392156862745098" d="M 28.5 24 L 24.5 29 L 28.5 24 Z " /><path fill="rgb(200,200,199)" stroke="rgb(200,200,199)" stroke-width="1" opacity="0.6274509803921569" d="M 9.5 3 L 8 5.5 L 6.5 8 L 3.5 10 L 4 8.5 L 6.5 5 L 9.5 3 Z " /><path fill="rgb(200,200,199)" stroke="rgb(200,200,199)" stroke-width="1" opacity="0.6274509803921569" d="M 22.5 3 L 28 7.5 L 24.5 5 L 22.5 3 Z " /><path fill="rgb(200,200,199)" stroke="rgb(200,200,199)" stroke-width="1" opacity="0.6274509803921569" d="M 28.5 9 L 30 11.5 L 29 11.5 L 28.5 9 Z " /><path fill="rgb(200,200,199)" stroke="rgb(200,200,199)" stroke-width="1" opacity="0.6274509803921569" d="M 25.5 24 L 27 24.5 L 24 26.5 L 25.5 24 Z " /><path fill="rgb(200,200,199)" stroke="rgb(200,200,199)" stroke-width="1" opacity="0.6274509803921569" d="M 13.5 30 L 19 30.5 L 13.5 31 L 13.5 30 Z " /><path fill="rgb(0,0,0)" stroke="rgb(0,0,0)" stroke-width="1" opacity="0" d="M 0 0 L 32 0 L 32 32 L 0 32 L 0 0 Z M 13 1 L 8 3 L 1 12 Q 0 20 3 25 L 12 31 Q 21 33 25 29 Q 29 26 31 20 Q 32 11 29 8 L 21 1 L 13 1 Z " /><path fill="rgb(220,74,139)" stroke="rgb(220,74,139)" stroke-width="1" opacity="0.996078431372549" d="M 13.5 4 Q 15.8 3.3 15 5.5 L 12 8.5 L 13 9.5 Q 13.8 11.8 11.5 11 L 10.5 10 L 6.5 14 L 4 13.5 Q 5.4 7.4 10.5 5 L 13.5 4 Z " /><path fill="rgb(220,74,139)" stroke="rgb(220,74,139)" stroke-width="1" opacity="0.996078431372549" d="M 18.5 10 L 21 10.5 L 18.5 11 L 18.5 10 Z " /><path fill="rgb(206,37,119)" stroke="rgb(206,37,119)" stroke-width="1" opacity="0.996078431372549" d="M 15 4 L 19 5.5 L 14 9.5 L 11.5 18 L 9.5 12 L 5.5 17 L 4 14.5 Q 5.3 11.8 6.5 14 L 10.5 10 L 11.5 11 Q 13.8 11.8 13 9.5 L 12 8.5 L 15 5.5 L 15 4 Z " /><path fill="rgb(206,37,119)" stroke="rgb(206,37,119)" stroke-width="1" opacity="0.996078431372549" d="M 18.5 9 L 21 9.5 L 18 10.5 L 20 11.5 L 15.5 15 L 15 13.5 L 18.5 9 Z " /><path fill="rgb(117,28,110)" stroke="rgb(117,28,110)" stroke-width="1" opacity="0.996078431372549" d="M 22.5 10 L 22 11.5 L 22.5 13 L 26 10.5 L 23.5 14 L 20 16.5 Q 20.7 19.1 18 18 L 17 15.5 L 22.5 10 Z " /><path fill="rgb(117,28,110)" stroke="rgb(117,28,110)" stroke-width="1" opacity="0.996078431372549" d="M 14.5 17 L 16 20.5 Q 14.5 23.5 13 20.5 L 14.5 17 Z " /><path fill="rgb(117,28,110)" stroke="rgb(117,28,110)" stroke-width="1" opacity="0.996078431372549" d="M 10.5 22 L 13 23.5 L 9.5 25 L 10 23.5 L 10.5 22 Z " /><path fill="rgb(135,35,120)" stroke="rgb(135,35,120)" stroke-width="1" opacity="0.996078431372549" d="M 23.5 7 L 26 9.5 L 22.5 13 L 22 11.5 L 22 9.5 L 23.5 7 Z " /><path fill="rgb(135,35,120)" stroke="rgb(135,35,120)" stroke-width="1" opacity="0.996078431372549" d="M 17.5 14 L 18 16.5 Q 18.8 19.1 15.5 18 Q 14.3 15.8 13 18.5 L 9 24.5 L 9.5 26 L 6 22.5 L 7.5 21 Q 9.8 21.8 9 19.5 L 10.5 20 Q 13.1 20.8 12 17.5 L 17.5 14 Z " /><path fill="rgb(84,30,119)" stroke="rgb(84,30,119)" stroke-width="1" opacity="0.996078431372549" d="M 26.5 14 L 27 18.5 L 24.5 19 L 22 20.5 Q 23.1 23.8 20.5 23 L 17 25.5 L 17 27 L 13 27 L 14 23 L 11 22.5 L 14 21 Q 13 24 16 23 Q 14.5 19.2 17.5 20 L 26.5 14 Z " /><path fill="rgb(125,109,133)" stroke="rgb(125,109,133)" stroke-width="1" opacity="0.9607843137254902" d="M 16.5 2 L 22 5.5 L 20.5 5 L 13.5 4 L 12 4.5 Q 11.1 1.5 15.5 3 L 16.5 2 Z " /><path fill="rgb(125,109,133)" stroke="rgb(125,109,133)" stroke-width="1" opacity="0.9607843137254902" d="M 24.5 7 Q 30.4 9.6 30 18.5 L 23 24.5 L 19.5 29 L 15.5 30 L 10 26.5 L 11.5 27 L 17.5 28 L 21 26.5 L 19 25.5 L 24.5 21 Q 25.8 23.3 27 20.5 L 28 13.5 L 24.5 7 Z " /><path fill="rgb(125,109,133)" stroke="rgb(125,109,133)" stroke-width="1" opacity="0.9607843137254902" d="M 4.5 11 L 5 12.5 Q 2.8 13.7 4 18.5 L 8 24.5 L 3 20.5 L 2 15.5 L 4.5 11 Z " /><path fill="rgb(234,234,234)" stroke="rgb(234,234,234)" stroke-width="1" opacity="0.2" d="M 12.5 1 L 15 1.5 L 12.5 2 L 12.5 1 Z " /><path fill="rgb(234,234,234)" stroke="rgb(234,234,234)" stroke-width="1" opacity="0.2" d="M 17.5 1 Q 25.8 1.8 29 7.5 L 30 9.5 L 28 8.5 L 24.5 4 L 17.5 2 L 17.5 1 Z " /><path fill="rgb(234,234,234)" stroke="rgb(234,234,234)" stroke-width="1" opacity="0.2" d="M 9.5 2 L 11 2.5 L 4 7.5 L 1.5 14 L 1 11.5 L 7.5 3 L 9.5 2 Z " /><path fill="rgb(234,234,234)" stroke="rgb(234,234,234)" stroke-width="1" opacity="0.2" d="M 30.5 11 L 31 13.5 L 30 13.5 L 30.5 11 Z " /><path fill="rgb(142,142,142)" stroke="rgb(142,142,142)" stroke-width="1" opacity="0.48627450980392156" d="M 1.5 14 Q 2.1 24.9 9.5 29 L 12 30.5 L 10.5 30 L 3 23.5 Q -0.3 20.3 1.5 14 Z " /><path fill="rgb(142,142,142)" stroke="rgb(142,142,142)" stroke-width="1" opacity="0.48627450980392156" d="M 30.5 14 L 31 18.5 L 30 18.5 L 30.5 14 Z " /><path fill="rgb(142,142,142)" stroke="rgb(142,142,142)" stroke-width="1" opacity="0.48627450980392156" d="M 29.5 20 L 30 21.5 L 27.5 25 L 28 23.5 L 29.5 20 Z " /><path fill="rgb(142,142,142)" stroke="rgb(142,142,142)" stroke-width="1" opacity="0.48627450980392156" d="M 24.5 27 L 22.5 30 L 20.5 31 L 21.5 29 L 24.5 27 Z " /><path fill="rgb(102,37,123)" stroke="rgb(102,37,123)" stroke-width="1" opacity="0.996078431372549" d="M 26.5 11 Q 28.9 13.1 28 18.5 L 25.5 22 L 24.5 21 L 21 24.5 Q 23.3 25.8 20.5 27 L 14.5 28 L 14.5 27 Q 17.8 28.1 17 25.5 L 22 23 L 23.5 19 L 25.5 18 L 27 18.5 L 26.5 14 L 16 20 L 16 18 L 20 18 L 20 16.5 L 26.5 11 Z " /><path fill="rgb(102,37,123)" stroke="rgb(102,37,123)" stroke-width="1" opacity="0.996078431372549" d="M 12.5 20 L 11.5 22 L 12.5 20 Z " /><path fill="rgb(102,37,123)" stroke="rgb(102,37,123)" stroke-width="1" opacity="0.996078431372549" d="M 15.5 21 L 16 23 Q 13.3 21.9 14 24.5 L 13 27 L 10 25.5 L 15.5 21 Z " /><path fill="rgb(102,37,123)" stroke="rgb(102,37,123)" stroke-width="1" opacity="0.996078431372549" d="M 24.5 23 L 23.5 25 L 24.5 23 Z " /></svg>